<?xml version="1.0" standalone="no"?>
<!DOCTYPE svg PUBLIC "-//W3C//DTD SVG 20010904//EN"
 "http://www.w3.org/TR/2001/REC-SVG-20010904/DTD/svg10.dtd">
<svg version="1.0" xmlns="http://www.w3.org/2000/svg"
 width="568.494970pt" height="587.874685pt" viewBox="0 0 568.494970 587.874685"
 preserveAspectRatio="xMidYMid meet">
<metadata>
Created by potrace 1.16, written by Peter Selinger 2001-2019
</metadata>
<g transform="translate(-0.806616,587.991139) scale(0.100000,-0.100000)"
fill="#000000" stroke="none">
<path d="M393 5860 c-18 -10 -39 -33 -48 -50 -10 -19 -45 -232 -91 -553 -92
-634 -103 -712 -154 -1087 -22 -162 -53 -389 -70 -504 -33 -232 -31 -262 19
-310 14 -14 55 -36 91 -49 l65 -25 7 -68 c3 -38 11 -161 17 -274 13 -232 19
-253 83 -258 42 -4 61 10 271 191 78 67 150 128 159 135 14 11 23 10 59 -8
l42 -22 -7 -101 c-3 -56 -11 -167 -17 -246 -7 -105 -7 -152 1 -172 11 -26 46
-49 75 -49 15 0 101 57 240 159 50 37 113 83 141 103 l50 37 115 -72 c153 -97
288 -198 334 -248 59 -66 79 -120 72 -202 -8 -91 -33 -138 -114 -219 -96 -94
-295 -250 -313 -245 -8 2 -97 57 -197 121 -168 108 -185 117 -224 114 -32 -2
-47 -9 -62 -30 -19 -26 -19 -26 11 -270 l31 -243 -24 -20 c-14 -11 -37 -28
-53 -37 l-28 -17 -193 145 c-168 126 -197 144 -230 144 -27 0 -44 -7 -61 -25
l-23 -25 7 -212 c4 -117 9 -236 13 -264 l5 -51 -143 -74 c-131 -68 -146 -79
-173 -123 -28 -44 -31 -58 -37 -174 -4 -70 -9 -208 -11 -307 -3 -172 -2 -182
20 -227 30 -62 89 -111 155 -132 48 -15 125 -16 773 -14 708 3 720 3 764 24
25 12 62 39 84 60 69 69 74 93 106 437 59 638 82 863 91 900 11 43 59 101 100
123 31 16 115 19 151 5 14 -5 60 -37 103 -72 44 -35 97 -69 119 -76 36 -13 43
-12 82 9 27 15 236 224 585 586 328 339 553 565 568 569 28 7 48 -4 72 -38 14
-19 21 -71 34 -264 19 -281 66 -946 95 -1330 11 -148 27 -371 35 -494 18 -255
29 -294 99 -359 86 -80 59 -77 791 -77 719 0 681 -3 759 65 20 18 47 52 59 74
30 56 27 146 -17 521 -19 165 -49 422 -65 570 -45 401 -38 365 -77 365 l-34 0
0 287 c0 353 -18 537 -140 1443 -16 118 -36 274 -45 345 -9 72 -31 240 -50
375 -19 135 -55 400 -80 590 -103 773 -156 1137 -170 1168 -17 37 -68 72 -105
72 -38 0 -77 -28 -320 -230 -222 -184 -411 -340 -545 -448 -38 -31 -96 -80
-130 -107 -60 -51 -573 -472 -935 -769 -107 -88 -216 -177 -242 -199 l-48 -39
-28 24 c-16 13 -67 55 -113 94 -494 419 -640 542 -1024 858 -312 258 -975 787
-1003 802 -37 19 -71 17 -109 -6z m843 -1471 c72 -27 136 -86 171 -156 35 -73
38 -183 6 -255 -27 -59 -95 -133 -148 -160 -56 -30 -176 -36 -243 -14 -108 36
-200 155 -210 271 -18 225 210 394 424 314z m3104 -7 c59 -26 127 -94 156
-157 33 -71 33 -180 0 -251 -68 -146 -219 -216 -373 -175 -92 25 -187 118
-213 209 -15 54 -12 142 6 195 18 53 91 140 138 164 90 47 199 53 286 15z"/>
</g>
</svg>
